<svg xmlns="http://www.w3.org/2000/svg" width="900" height="520" viewBox="0 0 900 520">
  <defs>
    <linearGradient id="bg" x1="0" y1="0" x2="1" y2="1">
      <stop offset="0" stop-color="#0b0f14" />
      <stop offset="1" stop-color="#151b24" />
    </linearGradient>
    <linearGradient id="ring" x1="0" y1="0" x2="1" y2="1">
      <stop offset="0" stop-color="#ff8a00" />
      <stop offset="1" stop-color="#00d4ff" />
    </linearGradient>
    <linearGradient id="accent" x1="0" y1="0" x2="1" y2="1">
      <stop offset="0" stop-color="#ff4d6d" />
      <stop offset="1" stop-color="#8b5cf6" />
    </linearGradient>
  </defs>
  <rect width="900" height="520" rx="28" fill="url(#bg)" />
  <circle cx="450" cy="260" r="195" fill="none" stroke="url(#ring)" stroke-width="10" stroke-dasharray="18 10" opacity="0.7" />
  <circle cx="450" cy="260" r="125" fill="none" stroke="url(#accent)" stroke-width="12" stroke-dasharray="8 12" opacity="0.85" />
  <g>
    <rect x="120" y="150" width="200" height="130" rx="20" fill="#111827" stroke="#2a3545" />
    <rect x="580" y="150" width="200" height="130" rx="20" fill="#111827" stroke="#2a3545" />
    <rect x="350" y="320" width="200" height="120" rx="20" fill="#111827" stroke="#2a3545" />
    <rect x="160" y="200" width="100" height="12" rx="6" fill="#ff8a00" />
    <rect x="620" y="200" width="100" height="12" rx="6" fill="#00d4ff" />
    <rect x="390" y="360" width="100" height="12" rx="6" fill="#8b5cf6" />
    <circle cx="210" cy="190" r="18" fill="#ff4d6d" />
    <circle cx="670" cy="190" r="18" fill="#22c55e" />
    <circle cx="440" cy="350" r="18" fill="#f97316" />
  </g>
  <text x="450" y="275" text-anchor="middle" font-family="Poppins, Arial, sans-serif" font-size="22" fill="#cbd5f5" letter-spacing="2">POTENTIAL USE CASES</text>
</svg>
