<svg xmlns="http://www.w3.org/2000/svg" width="1200" height="840" viewBox="0 0 1200 840">
  <defs>
    <linearGradient id="bg" x1="0" y1="0" x2="1" y2="1">
      <stop offset="0" stop-color="#ffffff"/>
      <stop offset="1" stop-color="#fff7ed"/>
    </linearGradient>
    <linearGradient id="orange" x1="0" y1="0" x2="1" y2="1">
      <stop offset="0" stop-color="#f97316"/>
      <stop offset="1" stop-color="#fb7185"/>
    </linearGradient>
    <linearGradient id="blue" x1="0" y1="0" x2="1" y2="1">
      <stop offset="0" stop-color="#2563eb"/>
      <stop offset="1" stop-color="#0f766e"/>
    </linearGradient>
    <linearGradient id="soft" x1="0" y1="0" x2="1" y2="1">
      <stop offset="0" stop-color="#ffedd5"/>
      <stop offset="1" stop-color="#f8fafc"/>
    </linearGradient>
    <filter id="shadow" x="-20%" y="-20%" width="140%" height="140%">
      <feDropShadow dx="0" dy="16" stdDeviation="18" flood-color="#9a3412" flood-opacity="0.14"/>
    </filter>
  </defs>
  <rect width="1200" height="840" rx="36" fill="url(#bg)"/>
  <circle cx="246" cy="146" r="110" fill="#ffedd5"/>
  <circle cx="968" cy="154" r="122" fill="#dbeafe"/>
  <circle cx="942" cy="612" r="136" fill="#ffedd5"/>
  <path d="M126 626c48-132 164-232 324-270 124-30 250-18 354 38 120 64 220 148 314 240-76 92-196 134-352 136-204 2-418-48-640-144z" fill="#fffaf3"/>

  <g filter="url(#shadow)">
    <rect x="116" y="162" width="250" height="438" rx="34" fill="#ffffff" stroke="#f2dcc4"/>
    <circle cx="176" cy="246" r="28" fill="url(#orange)"/>
    <rect x="220" y="220" width="110" height="18" rx="9" fill="#fed7aa"/>
    <rect x="220" y="254" width="138" height="16" rx="8" fill="#ffedd5"/>
    <rect x="170" y="328" width="160" height="16" rx="8" fill="#f9a8d4"/>
    <rect x="170" y="362" width="122" height="16" rx="8" fill="#fed7aa"/>
    <rect x="170" y="396" width="144" height="16" rx="8" fill="#ffedd5"/>
    <rect x="170" y="430" width="96" height="16" rx="8" fill="#fecaca"/>
  </g>

  <g filter="url(#shadow)">
    <rect x="418" y="128" width="364" height="520" rx="38" fill="#ffffff" stroke="#f2dcc4"/>
    <rect x="466" y="178" width="268" height="20" rx="10" fill="#fed7aa"/>
    <rect x="466" y="214" width="210" height="16" rx="8" fill="#ffedd5"/>
    <rect x="466" y="252" width="288" height="210" rx="28" fill="url(#soft)"/>
    <circle cx="624" cy="364" r="82" fill="#fed7aa"/>
    <circle cx="624" cy="364" r="52" fill="url(#blue)"/>
    <path d="M600 364h48M624 340v48" stroke="#fff" stroke-width="10" stroke-linecap="round"/>
    <rect x="466" y="492" width="266" height="16" rx="8" fill="#ffedd5"/>
    <rect x="466" y="528" width="198" height="16" rx="8" fill="#fed7aa"/>
    <rect x="466" y="564" width="238" height="16" rx="8" fill="#ffedd5"/>
  </g>

  <g filter="url(#shadow)">
    <rect x="830" y="178" width="230" height="414" rx="34" fill="#ffffff" stroke="#f2dcc4"/>
    <rect x="868" y="222" width="154" height="86" rx="22" fill="#dbeafe"/>
    <rect x="868" y="340" width="130" height="16" rx="8" fill="#fed7aa"/>
    <rect x="868" y="374" width="164" height="16" rx="8" fill="#ffedd5"/>
    <rect x="868" y="408" width="118" height="16" rx="8" fill="#fed7aa"/>
    <circle cx="982" cy="264" r="28" fill="url(#orange)"/>
    <path d="M968 264l20 12-20 12z" fill="#fff"/>
  </g>

  <g fill="none" stroke-linecap="round">
    <path d="M336 170c38 26 60 54 72 90" stroke="#fb923c" stroke-width="8" stroke-dasharray="14 12"/>
    <path d="M758 202c42 8 74 24 104 58" stroke="#60a5fa" stroke-width="8" stroke-dasharray="14 12"/>
    <path d="M846 478c-32 26-60 38-100 46" stroke="#34d399" stroke-width="8" stroke-dasharray="14 12"/>
    <path d="M278 500c58-18 90-40 124-82" stroke="#f59e0b" stroke-width="8" stroke-dasharray="14 12"/>
  </g>

  <text x="600" y="760" text-anchor="middle" font-family="Poppins, Arial, sans-serif" font-size="34" font-weight="700" fill="#7c2d12">Potential use cases</text>
  <text x="600" y="802" text-anchor="middle" font-family="Mulish, Arial, sans-serif" font-size="20" fill="#7c6a55">Clear experiences across work, home, and everyday life</text>
</svg>
